<?xml version="1.0" standalone="no"?>
<svg xmlns="http://www.w3.org/2000/svg" version="1.1" xmlns:xlink="http://www.w3.org/1999/xlink" width="512" height="512" x="0" y="0" viewBox="0 0 48 48" style="enable-background:new 0 0 512 512" xml:space="preserve" class=""><g><path d="M40 20h-6v-9c0-2.77-2.18-6-5-6H8a5 5 0 0 0-5 5v21a1 1 0 0 0 .62.92 1 1 0 0 0 .93-.09l4.82-3.21a3.66 3.66 0 0 1 2.05-.62H14v9a5 5 0 0 0 5 5h17.58a3.66 3.66 0 0 1 2.05.62l4.82 3.21A1 1 0 0 0 45 45V25a5 5 0 0 0-5-5ZM8.26 27 5 29.13V10a3 3 0 0 1 3-3h21c1.55 0 3 2.25 3 4v12a3 3 0 0 1-3 3H11.42a5.65 5.65 0 0 0-3.16 1ZM43 43.13 39.74 41a5.65 5.65 0 0 0-3.16-1H19a3 3 0 0 1-3-3v-9h21a1 1 0 0 0 0-2h-4a4.92 4.92 0 0 0 1-3v-1h6a3 3 0 0 1 3 3Z" fill="#eef2f5" opacity="1" data-original="#000000" class=""/><path d="M11 14h15a1 1 0 0 0 0-2H11a1 1 0 0 0 0 2ZM11 18h15a1 1 0 0 0 0-2H11a1 1 0 0 0 0 2ZM20 21a1 1 0 0 0-1-1h-8a1 1 0 0 0 0 2h8a1 1 0 0 0 1-1ZM37 30H22a1 1 0 0 0 0 2h15a1 1 0 0 0 0-2ZM29 34h-7a1 1 0 0 0 0 2h7a1 1 0 0 0 0-2Z" fill="#eef2f5" opacity="1" data-original="#000000" class=""/></g></svg>