<?xml version="1.0" standalone="no"?>
<svg xmlns="http://www.w3.org/2000/svg" version="1.1" xmlns:xlink="http://www.w3.org/1999/xlink" width="512" height="512" x="0" y="0" viewBox="0 0 64 64" style="enable-background:new 0 0 512 512" xml:space="preserve" class=""><g><path d="M56.93 6.5h-9.479c-.181-1.253-1.246-2.221-2.541-2.221h-4.745A4 4 0 0 0 36.568 2a3.938 3.938 0 0 0-3.6 2.279h-4.741A2.589 2.589 0 0 0 25.671 6.5H16.17c-1.814 0-3.29 1.485-3.29 3.31v9.38a1 1 0 1 0 2 0V9.81c0-.722.579-1.31 1.29-1.31h9.46v1.93c0 .2.028.393.072.58H19.22a1 1 0 0 0-1 1v4.16a1 1 0 1 0 2 0v-3.16h7.993l.015.001h16.683l.014-.001h7.955v41.21H20.22v-3.16a1 1 0 1 0-2 0v4.16a1 1 0 0 0 1 1h34.66a1 1 0 0 0 1-1V12.01a1 1 0 0 0-1-1h-6.462c.043-.186.071-.378.071-.577V8.5h9.441c.711 0 1.29.588 1.29 1.31v48.9c0 .711-.579 1.29-1.29 1.29H16.17c-.711 0-1.29-.579-1.29-1.29V48.04a1 1 0 1 0-2 0v10.67A3.294 3.294 0 0 0 16.17 62h40.76a3.294 3.294 0 0 0 3.29-3.29V9.81c0-1.825-1.476-3.31-3.29-3.31zm-29.296.373c0-.328.267-.594.594-.594h5.452c.467 0 .872-.323.976-.778.2-.883.987-1.5 1.913-1.5.912 0 1.717.631 1.914 1.5.104.455.509.778.976.778h5.452a.58.58 0 0 1 .578.594v.589c0 .014-.008.025-.008.039v2.93a.612.612 0 0 1-.173.417l-.007.006a.586.586 0 0 1-.134.091l-.043.024a.552.552 0 0 1-.199.04l-.014.001H28.22c-.022 0-.041-.01-.062-.013-.055-.006-.11-.012-.16-.033a.586.586 0 0 1-.364-.532v-3.56z" fill="#096386" opacity="1" data-original="#000000"/><path d="m15.518 45.273.405 2.925a1 1 0 0 0 .99.863h4.614a1 1 0 0 0 .99-.863l.406-2.925c.663-.21 1.306-.476 1.921-.795l2.354 1.781c.398.301.958.263 1.311-.09l3.263-3.263a1 1 0 0 0 .091-1.311l-1.782-2.354c.319-.615.585-1.258.796-1.922l2.926-.405a1 1 0 0 0 .862-.991v-4.614a1 1 0 0 0-.863-.991l-2.925-.405a12.284 12.284 0 0 0-.795-1.922l1.781-2.354a1 1 0 0 0-.091-1.311l-3.263-3.263a1 1 0 0 0-1.311-.09l-2.354 1.782a12.161 12.161 0 0 0-1.921-.795l-.406-2.925a1 1 0 0 0-.99-.863h-4.614a1 1 0 0 0-.99.863l-.405 2.925c-.663.21-1.306.476-1.921.795l-2.354-1.782a1.002 1.002 0 0 0-1.311.09l-3.264 3.263a.999.999 0 0 0-.09 1.311l1.781 2.354a12.172 12.172 0 0 0-.795 1.922l-2.925.405a1 1 0 0 0-.863.991v4.614a1 1 0 0 0 .862.991l2.926.405c.21.663.476 1.306.795 1.921l-1.781 2.354a.999.999 0 0 0 .09 1.311l3.264 3.263a.999.999 0 0 0 1.311.09l2.354-1.781c.615.319 1.258.585 1.921.795zm-2.609-2.782-2.179 1.648-2.031-2.031 1.648-2.178a.998.998 0 0 0 .063-1.113 10.181 10.181 0 0 1-1.096-2.647 1 1 0 0 0-.831-.742l-2.707-.375v-2.872l2.706-.375c.402-.056.731-.349.832-.742.239-.932.607-1.823 1.096-2.646a1 1 0 0 0-.063-1.113l-1.648-2.178 2.031-2.031 2.179 1.648a.998.998 0 0 0 1.113.063 10.18 10.18 0 0 1 2.646-1.096 1 1 0 0 0 .741-.832l.375-2.707h2.872l.376 2.707a1 1 0 0 0 .741.831c.932.24 1.822.609 2.647 1.097a1 1 0 0 0 1.112-.063l2.179-1.648 2.03 2.031-1.648 2.178a1 1 0 0 0-.062 1.113c.486.821.855 1.712 1.096 2.647a1 1 0 0 0 .832.741l2.706.375v2.872l-2.707.375a1.003 1.003 0 0 0-.831.741c-.24.935-.609 1.826-1.096 2.648-.207.349-.182.789.062 1.113l1.648 2.178-2.03 2.031-2.179-1.648a1 1 0 0 0-1.112-.063c-.824.487-1.715.856-2.647 1.096a.998.998 0 0 0-.741.831l-.376 2.707h-2.872l-.375-2.707a1.003 1.003 0 0 0-.741-.832 10.135 10.135 0 0 1-2.646-1.095.996.996 0 0 0-1.113.063z" fill="#096386" opacity="1" data-original="#000000"/><path d="M19.221 40.332c3.702 0 6.715-3.013 6.715-6.715s-3.013-6.715-6.715-6.715-6.715 3.012-6.715 6.715 3.013 6.715 6.715 6.715zm0-11.43c2.6 0 4.715 2.115 4.715 4.715s-2.115 4.715-4.715 4.715-4.715-2.115-4.715-4.715 2.115-4.715 4.715-4.715z" fill="#096386" opacity="1" data-original="#000000"/></g></svg>