<?xml version="1.0" standalone="no"?>
<svg xmlns="http://www.w3.org/2000/svg" version="1.1" xmlns:xlink="http://www.w3.org/1999/xlink" width="512" height="512" x="0" y="0" viewBox="0 0 512 512" style="enable-background:new 0 0 512 512" xml:space="preserve" class=""><g><path d="M480.15 116.407h-12.202a112.48 112.48 0 0 0-6.202-14.931l8.632-8.651c4.318-4.299 6.696-10.038 6.696-16.16s-2.379-11.859-6.685-16.146l-18.896-18.896c-4.299-4.318-10.038-6.697-16.16-6.697-6.121 0-11.859 2.379-16.146 6.686l-8.646 8.645a113.388 113.388 0 0 0-14.949-6.204V31.852c0-12.598-10.25-22.848-22.848-22.848h-26.73c-12.598 0-22.848 10.25-22.848 22.848v12.201a113.276 113.276 0 0 0-14.949 6.204l-8.633-8.633c-4.299-4.318-10.037-6.696-16.158-6.697-6.122 0-11.86 2.379-16.148 6.686l-18.896 18.896c-4.318 4.299-6.696 10.037-6.697 16.158 0 6.122 2.379 11.861 6.681 16.144l8.648 8.668a112.48 112.48 0 0 0-6.202 14.931H238.61c-12.598 0-22.848 10.25-22.848 22.848v26.73c0 12.598 10.25 22.848 22.848 22.848h12.202a113.164 113.164 0 0 0 6.204 14.949l-8.634 8.634c-4.318 4.299-6.697 10.037-6.697 16.159s2.379 11.859 6.686 16.147l18.896 18.896c4.299 4.318 10.038 6.697 16.16 6.697 6.121 0 11.859-2.379 16.146-6.686l8.645-8.646a113.468 113.468 0 0 0 14.949 6.204v12.202c0 12.613 10.25 22.876 22.848 22.876h26.73c12.598 0 22.848-10.263 22.848-22.876V261.19a113.355 113.355 0 0 0 14.949-6.204l8.633 8.634c4.299 4.318 10.037 6.696 16.158 6.697 6.122 0 11.86-2.379 16.148-6.686l18.896-18.896c4.318-4.299 6.696-10.037 6.696-16.158s-2.378-11.86-6.685-16.148l-8.646-8.645a113.276 113.276 0 0 0 6.204-14.949h12.202c12.598 0 22.848-10.25 22.848-22.848v-26.73c0-12.598-10.25-22.848-22.848-22.848zm8.844 49.578c0 4.877-3.967 8.844-8.844 8.844h-17.377a7.002 7.002 0 0 0-6.742 5.112c-2.099 7.492-5.128 14.796-9.003 21.711a7.002 7.002 0 0 0 1.156 8.374l12.314 12.313c1.658 1.651 2.572 3.865 2.572 6.235s-.914 4.583-2.584 6.245l-18.918 18.919c-1.651 1.659-3.866 2.573-6.235 2.572a8.732 8.732 0 0 1-6.245-2.584l-12.303-12.303a7.003 7.003 0 0 0-8.374-1.157c-6.916 3.875-14.221 6.905-21.712 9.006a7.003 7.003 0 0 0-5.111 6.741v17.376c0 4.893-3.967 8.872-8.844 8.872h-26.73c-4.877 0-8.844-3.979-8.844-8.872v-17.376a7 7 0 0 0-5.111-6.741c-7.491-2.101-14.796-5.131-21.712-9.006a6.998 6.998 0 0 0-8.374 1.157l-12.314 12.314c-1.65 1.659-3.864 2.572-6.233 2.572s-4.584-.913-6.246-2.584l-18.919-18.918c-1.659-1.651-2.572-3.866-2.572-6.234s.913-4.584 2.584-6.246l12.303-12.303a7.002 7.002 0 0 0 1.156-8.374c-3.875-6.915-6.904-14.219-9.003-21.711a7.003 7.003 0 0 0-6.742-5.112H238.61c-4.877 0-8.844-3.967-8.844-8.844v-26.73c0-4.877 3.967-8.844 8.844-8.844h17.377a7.003 7.003 0 0 0 6.742-5.112 98.46 98.46 0 0 1 8.998-21.673 7.003 7.003 0 0 0-1.146-8.378l-12.319-12.347c-1.659-1.651-2.573-3.866-2.572-6.235 0-2.369.913-4.583 2.584-6.245L277.192 51.5c1.651-1.659 3.866-2.572 6.235-2.572s4.583.913 6.245 2.584l12.304 12.302a7.003 7.003 0 0 0 8.373 1.157c6.916-3.876 14.221-6.905 21.711-9.004a7.003 7.003 0 0 0 5.112-6.742V31.849c0-4.877 3.967-8.844 8.844-8.844h26.73c4.877 0 8.844 3.967 8.844 8.844v17.376c0 3.14 2.09 5.895 5.112 6.742 7.49 2.099 14.795 5.128 21.711 9.004a7.005 7.005 0 0 0 8.373-1.157l12.315-12.313c1.65-1.659 3.864-2.572 6.233-2.572s4.584.913 6.246 2.584l18.919 18.918c1.658 1.651 2.572 3.865 2.572 6.234s-.914 4.584-2.589 6.252l-12.303 12.33a7 7 0 0 0-1.146 8.378 98.412 98.412 0 0 1 8.998 21.673 7.004 7.004 0 0 0 6.742 5.112h17.377c4.877 0 8.844 3.967 8.844 8.844v26.73zM359.365 60.224c-50.938 0-92.381 41.455-92.381 92.41s41.442 92.382 92.381 92.382 92.41-41.442 92.41-92.382-41.455-92.41-92.41-92.41zm0 170.788c-43.218 0-78.377-35.16-78.377-78.378s35.159-78.406 78.377-78.406 78.406 35.173 78.406 78.406-35.173 78.378-78.406 78.378zm49.012-134.277a7.003 7.003 0 0 0-11.988-4.916c-9.945 10.084-30.263 12.109-49.91 14.069-26.38 2.631-56.279 5.612-56.279 33.083 0 19.291 15.293 26.391 29.649 29.541l11.21 41.807a7 7 0 0 0 6.763 5.188h19.984a7.005 7.005 0 0 0 5.555-2.739 7.005 7.005 0 0 0 1.208-6.075l-9.025-33.684c16.582 1.834 32.433 4.593 40.84 13.138a7 7 0 0 0 11.992-4.91v-15.999c11.606-3.097 20.183-13.697 20.183-26.266s-8.576-23.144-20.183-26.238V96.736zm-104.173 42.236c0-10.069 7.979-14.161 24.66-16.837v33.741c-18.036-2.924-24.66-7.666-24.66-16.904zm38.989 62.532-8.218-30.648c.108.014.216.026.325.034 1.756.207 3.543.403 5.338.591l8.044 30.023zm51.18-33.627c-13.112-6.408-29.994-8.092-46.458-9.733-1.721-.172-3.395-.34-5.047-.51v-37.295c1.617-.173 3.28-.344 5.001-.516 16.479-1.644 33.378-3.328 46.504-9.738v57.793zm20.183-28.905c0 4.694-2.474 8.811-6.179 11.147v-22.27c3.705 2.33 6.179 6.439 6.179 11.123zM273.618 323.024h-12.229a112.632 112.632 0 0 0-6.2-14.953l8.669-8.669c8.891-8.892 8.896-23.387 0-32.323l-18.936-18.936c-4.298-4.297-10.038-6.664-16.162-6.664s-11.865 2.367-16.161 6.664l-8.67 8.669a112.905 112.905 0 0 0-14.925-6.197v-12.232c0-12.613-10.263-22.876-22.876-22.876h-26.759c-12.613 0-22.876 10.263-22.876 22.876v12.232a113.787 113.787 0 0 0-14.943 6.199l-8.662-8.682c-8.926-8.887-23.422-8.882-32.312.011L41.63 267.09c-8.886 8.925-8.881 23.42.012 32.312l8.668 8.668a112.632 112.632 0 0 0-6.2 14.953H31.881c-12.613 0-22.876 10.25-22.876 22.848v26.76c0 12.613 10.263 22.876 22.876 22.876h12.233a113.735 113.735 0 0 0 6.198 14.942l-8.682 8.662c-8.886 8.927-8.881 23.422.011 32.312l18.936 18.936c8.892 8.89 23.387 8.897 32.329-.006l8.646-8.664a115.475 115.475 0 0 0 14.943 6.213v12.218c0 12.613 10.263 22.876 22.876 22.876h26.759c12.613 0 22.876-10.263 22.876-22.876v-12.218a114.637 114.637 0 0 0 14.926-6.211l8.668 8.667c4.297 4.298 10.037 6.665 16.162 6.665s11.864-2.367 16.162-6.664l18.936-18.936c8.891-8.891 8.896-23.386-.006-32.33l-8.665-8.644a113.861 113.861 0 0 0 6.198-14.943h12.232c12.613 0 22.876-10.263 22.876-22.876v-26.76c0-12.598-10.263-22.848-22.876-22.848zm8.872 49.607c0 4.893-3.979 8.872-8.872 8.872h-17.404a7.002 7.002 0 0 0-6.74 5.106 99.696 99.696 0 0 1-9.006 21.717 7.003 7.003 0 0 0 1.163 8.38l12.313 12.284c3.45 3.466 3.456 9.088.012 12.531l-18.936 18.936c-1.652 1.653-3.876 2.563-6.26 2.563s-4.607-.91-6.261-2.563l-12.331-12.33a7.002 7.002 0 0 0-8.383-1.151 100.295 100.295 0 0 1-21.7 9.034 7.002 7.002 0 0 0-5.085 6.734v17.376c0 4.893-3.979 8.872-8.872 8.872h-26.759c-4.893 0-8.872-3.979-8.872-8.872v-17.376a7.002 7.002 0 0 0-5.085-6.734 101.154 101.154 0 0 1-21.738-9.04 6.994 6.994 0 0 0-8.379 1.163l-12.286 12.313c-3.468 3.449-9.089 3.454-12.531.011l-18.937-18.936c-3.443-3.443-3.438-9.064-.005-12.514l12.331-12.302a7.003 7.003 0 0 0 1.163-8.38 99.745 99.745 0 0 1-9.006-21.717 7.002 7.002 0 0 0-6.74-5.106H31.879c-4.893 0-8.872-3.979-8.872-8.872v-26.76c0-4.877 3.979-8.844 8.872-8.844h17.405a7.003 7.003 0 0 0 6.742-5.112 98.568 98.568 0 0 1 8.998-21.701 7.003 7.003 0 0 0-1.152-8.384l-12.33-12.33c-3.444-3.443-3.439-9.065 0-12.52l18.936-18.936c3.444-3.445 9.066-3.439 12.515-.006l12.303 12.33a7 7 0 0 0 8.378 1.163 99.74 99.74 0 0 1 21.718-9.006 7.002 7.002 0 0 0 5.106-6.74V238.38c0-4.893 3.979-8.872 8.872-8.872h26.759c4.893 0 8.872 3.979 8.872 8.872v17.404a7.002 7.002 0 0 0 5.106 6.74 98.925 98.925 0 0 1 21.68 9 7.005 7.005 0 0 0 8.382-1.151l12.332-12.331c1.652-1.652 3.875-2.563 6.26-2.563s4.607.91 6.26 2.563l18.925 18.924c3.449 3.466 3.454 9.088.012 12.531l-12.331 12.33a7.002 7.002 0 0 0-1.152 8.384 98.568 98.568 0 0 1 8.998 21.701 7.004 7.004 0 0 0 6.742 5.112h17.404c4.893 0 8.872 3.967 8.872 8.844v26.76zm-129.741-96.889c-46.047 0-83.509 37.462-83.509 83.509 0 22.248 8.762 42.475 22.995 57.457.188.255.385.506.61.738 15.839 16.323 37.113 25.313 59.903 25.313s44.031-8.988 59.899-25.309c.229-.235.429-.488.619-.746 14.231-14.982 22.992-35.208 22.992-57.454 0-46.047-37.463-83.509-83.51-83.509zm-26.759 69.647c0-14.755 12.004-26.759 26.759-26.759s26.759 12.004 26.759 26.759-12.004 26.73-26.759 26.73-26.759-11.991-26.759-26.73zm37.51 82.532-.293.047c-.962.146-1.932.265-2.906.37-.211.023-.422.051-.634.072-.897.089-1.802.152-2.708.207-.257.015-.513.04-.771.052-1.14.056-2.285.087-3.438.087s-2.303-.031-3.445-.088c-.241-.012-.481-.035-.722-.049a68.763 68.763 0 0 1-2.776-.212c-.179-.018-.356-.042-.535-.06a69.03 69.03 0 0 1-3.042-.388l-.127-.02c-13.456-2.078-25.64-8.038-35.394-16.684 10.029-15.623 27.231-25.132 46.042-25.132s36.014 9.508 46.043 25.133c-9.729 8.623-21.877 14.573-35.292 16.665zm45.023-27.243a68.427 68.427 0 0 0-30.153-23.637c9.229-7.474 15.142-18.884 15.142-31.651 0-22.477-18.286-40.763-40.763-40.763s-40.763 18.286-40.763 40.763c0 12.768 5.914 24.177 15.143 31.651a68.427 68.427 0 0 0-30.153 23.637c-8.622-11.577-13.732-25.915-13.732-41.427 0-38.325 31.18-69.505 69.505-69.505s69.506 31.18 69.506 69.505c0 15.512-5.11 29.85-13.732 41.427zM48.039 174.361a7 7 0 0 0 12.127-.002l38.096-65.987a7.001 7.001 0 0 0-6.063-10.503H79.363c-3.865-20.362 4.66-46.568 25.398-78.009a7.002 7.002 0 0 0-7.482-10.663c-41.153 9.901-64.472 39.719-69.382 88.672H16.004a7.002 7.002 0 0 0-6.063 10.503zm-13.694-62.488a7 7 0 0 0 6.986-6.547c2.503-38.444 16.089-63.534 41.381-76.134-16.806 30.347-22.027 56.433-15.52 77.726a7.004 7.004 0 0 0 6.696 4.955h6.185l-25.974 44.979-25.968-44.979h6.213zM463.99 337.636a7.003 7.003 0 0 0-12.125.001L413.766 403.6a7.001 7.001 0 0 0 6.063 10.503h12.836c3.87 20.374-4.656 46.589-25.399 78.037a7.002 7.002 0 0 0 7.487 10.663c41.152-9.93 64.47-39.756 69.378-88.699h11.865a7.002 7.002 0 0 0 6.063-10.501l-38.071-65.966zm13.694 62.463a7 7 0 0 0-6.986 6.547c-2.501 38.433-16.084 63.525-41.371 76.145 16.8-30.345 22.021-56.437 15.511-77.736a7.004 7.004 0 0 0-6.696-4.955h-6.185l25.972-44.963 25.945 44.963h-6.189z" fill="#096386" opacity="1" data-original="#000000" class=""/></g></svg>