<?xml version="1.0" standalone="no"?>
<svg xmlns="http://www.w3.org/2000/svg" version="1.1" xmlns:xlink="http://www.w3.org/1999/xlink" width="512" height="512" x="0" y="0" viewBox="0 0 64 64" style="enable-background:new 0 0 512 512" xml:space="preserve" class=""><g><path d="M56.64 9a5.507 5.507 0 0 0-5.5-5.5H12.86A5.507 5.507 0 0 0 7.36 9v46a5.507 5.507 0 0 0 5.5 5.5H29.8a1.5 1.5 0 0 0 0-3H12.86a2.502 2.502 0 0 1-2.5-2.5V9a2.502 2.502 0 0 1 2.5-2.5h38.28a2.502 2.502 0 0 1 2.5 2.5v24.66a1.5 1.5 0 0 0 3 0z" fill="#eef2f5" opacity="1" data-original="#000000" class=""/><path d="M47.5 14a1.5 1.5 0 0 0-1.5-1.5H18a1.5 1.5 0 0 0 0 3h28a1.5 1.5 0 0 0 1.5-1.5zM22 23.5h20a1.5 1.5 0 0 0 0-3H22a1.5 1.5 0 0 0 0 3zM55.14 48.5a1.5 1.5 0 0 0 0-3h-2.63a9.436 9.436 0 0 0-1.686-4.063l1.862-1.861a1.5 1.5 0 1 0-2.122-2.121l-1.861 1.861a9.437 9.437 0 0 0-4.063-1.685V35a1.5 1.5 0 0 0-3 0v2.63a9.437 9.437 0 0 0-4.063 1.685l-1.862-1.861a1.5 1.5 0 0 0-2.121 2.12l1.862 1.862A9.436 9.436 0 0 0 33.77 45.5h-2.63a1.5 1.5 0 0 0 0 3h2.63a9.437 9.437 0 0 0 1.685 4.063l-1.861 1.861a1.5 1.5 0 0 0 2.12 2.121l1.862-1.86a9.436 9.436 0 0 0 4.064 1.685V59a1.5 1.5 0 0 0 3 0v-2.63a9.437 9.437 0 0 0 4.063-1.686l1.861 1.861a1.5 1.5 0 0 0 2.122-2.12l-1.862-1.862A9.438 9.438 0 0 0 52.51 48.5zm-12 5a6.508 6.508 0 0 1-6.5-6.5c.305-8.602 12.696-8.6 13 0a6.508 6.508 0 0 1-6.5 6.5z" fill="#eef2f5" opacity="1" data-original="#000000" class=""/></g></svg>